<?xml version="1.0" standalone="no"?>
<!DOCTYPE svg PUBLIC "-//W3C//DTD SVG 20010904//EN"
 "http://www.w3.org/TR/2001/REC-SVG-20010904/DTD/svg10.dtd">
<svg version="1.0" xmlns="http://www.w3.org/2000/svg"
 width="729.000000pt" height="394.000000pt" viewBox="0 0 729.000000 394.000000"
 preserveAspectRatio="xMidYMid meet">

<g transform="translate(0.000000,394.000000) scale(0.100000,-0.100000)"
fill="#000000" stroke="none">
<path d="M3325 3850 c-181 -25 -303 -62 -439 -134 -56 -30 -80 -45 -176 -110
-154 -103 -329 -338 -398 -531 -53 -152 -64 -223 -59 -407 3 -95 8 -190 12
-210 l7 -38 -38 0 c-84 0 -235 -55 -334 -122 -170 -116 -264 -257 -302 -456
-19 -101 -19 -108 -2 -201 9 -53 27 -122 40 -154 40 -102 139 -229 227 -292
19 -14 36 -45 57 -104 17 -47 41 -103 55 -125 67 -111 78 -146 78 -236 0 -85
-12 -140 -56 -243 -23 -55 -18 -54 -186 -62 -1338 -64 -1288 -61 -1405 -96
-56 -17 -117 -35 -136 -41 -70 -20 -57 -29 35 -23 94 6 779 28 1375 45 1205
33 3260 39 3980 11 386 -15 894 -47 1123 -71 214 -23 260 -24 167 -5 -298 62
-963 159 -1608 234 -176 20 -169 15 -207 134 -46 144 -29 290 50 422 31 51 67
156 89 257 5 20 27 42 89 82 45 31 107 81 139 113 58 60 168 207 168 225 0 6
9 29 19 52 47 99 56 153 56 331 0 153 -3 177 -24 240 -79 231 -220 398 -431
513 -147 79 -246 103 -446 105 l-147 2 -17 60 c-48 163 -128 302 -256 442
-196 215 -479 359 -774 393 -165 19 -192 19 -325 0z m214 -128 c-13 -10 -40
-28 -60 -40 l-37 -22 -27 32 -28 33 79 6 c43 3 83 6 88 7 5 1 -2 -6 -15 -16z
m266 -53 c0 -22 -32 -22 -54 0 -32 32 -25 41 17 27 20 -7 37 -19 37 -27z
m-111 -35 c3 -9 6 -33 6 -55 0 -37 2 -39 30 -39 l31 0 -3 -82 -3 -83 -77 -3
c-73 -3 -77 -2 -80 20 -3 22 -7 22 -108 23 l-105 0 -3 112 -3 112 63 4 c177
10 246 7 252 -9z m-529 -86 c66 5 122 7 124 5 8 -6 19 -104 20 -165 l1 -56
-62 -6 c-35 -3 -105 -8 -155 -11 -99 -7 -98 -7 -96 43 1 7 -21 30 -47 50 -27
20 -49 41 -49 46 -1 9 76 106 94 118 5 4 19 -2 30 -12 19 -18 30 -19 140 -12z
m960 -83 c102 -38 104 -38 119 -26 12 10 14 8 10 -11 -2 -13 -2 -18 1 -12 6
12 95 -70 95 -86 0 -5 3 -10 8 -12 17 -8 96 -124 108 -160 4 -10 10 -18 14
-18 9 0 32 -51 26 -57 -2 -2 -7 5 -11 16 -3 11 -46 46 -96 78 -133 86 -179
122 -179 141 0 26 -26 -15 -34 -55 -11 -48 -29 -58 -67 -39 -36 18 -48 14 -30
-8 7 -8 10 -19 7 -24 -8 -14 -116 -95 -119 -91 -2 2 -25 31 -51 64 l-48 59 36
31 37 31 -37 13 c-33 12 -36 15 -30 45 4 17 16 56 27 86 12 30 25 65 30 76 8
22 8 22 61 4 29 -11 85 -31 123 -45z m-1415 -60 c-7 -8 -17 -15 -23 -15 -5 0
-2 9 8 20 21 23 35 19 15 -5z m243 -126 c47 -53 109 -117 137 -142 54 -49 58
-58 35 -77 -31 -25 -17 -39 43 -42 l57 -3 0 -135 0 -135 -72 -3 c-51 -2 -71
-6 -68 -15 3 -7 -17 -37 -44 -67 l-49 -54 -33 26 c-19 15 -47 38 -64 51 l-29
24 44 54 c58 70 61 72 87 47 l22 -20 3 92 c3 87 2 92 -22 114 -53 47 -58 49
-76 31 -9 -9 -22 -15 -29 -13 -7 2 -57 52 -110 112 -79 89 -94 111 -83 121 56
53 154 135 158 133 4 -2 45 -46 93 -99z m850 39 c8 -36 45 -189 56 -233 7 -26
7 -43 0 -51 -6 -7 -9 -32 -7 -56 l3 -43 53 53 c29 28 57 52 63 52 6 0 44 -32
85 -72 41 -39 77 -68 81 -64 4 3 -8 19 -26 34 l-32 27 80 110 c45 61 85 111
89 113 10 3 156 -105 160 -119 2 -5 -28 -52 -67 -105 -79 -105 -87 -119 -72
-129 22 -13 10 -34 -44 -74 -30 -22 -58 -41 -63 -41 -8 0 -43 40 -89 99 -2 3
-39 -30 -83 -74 l-79 -78 -75 73 c-42 40 -76 79 -76 86 0 6 11 22 25 35 13 13
25 27 25 32 0 4 -26 7 -57 7 l-58 -1 30 -16 c17 -8 31 -17 33 -18 4 -4 -53
-116 -85 -167 l-23 -37 -96 54 c-53 30 -98 55 -100 55 -2 0 -4 -11 -4 -25 0
-25 -1 -25 -80 -25 l-80 0 0 80 0 80 64 0 63 0 32 60 c18 33 39 60 47 60 8 0
50 -20 94 -45 44 -25 84 -45 90 -45 5 0 10 18 10 39 0 33 -4 40 -22 43 -15 2
-25 13 -30 33 -36 146 -51 214 -52 239 -1 29 1 30 83 47 46 10 86 21 89 24 13
13 40 3 45 -17z m-336 -78 c27 -41 53 -80 56 -87 6 -10 -119 -102 -240 -176
-14 -9 -137 168 -128 183 12 19 249 170 255 163 4 -5 30 -42 57 -83z m-957
-127 c0 -34 -24 -82 -62 -123 -17 -19 -29 -30 -27 -25 2 6 20 50 38 97 34 85
51 102 51 51z m249 -75 l41 -63 -27 -22 -27 -22 53 -7 53 -7 -7 -101 c-4 -56
-11 -106 -16 -112 -6 -7 -27 -10 -52 -7 -69 7 -251 33 -252 36 -1 1 3 49 9
107 l11 105 38 3 38 3 -22 35 c-12 19 -20 37 -18 38 17 15 116 75 125 75 6 1
30 -27 53 -61z m1778 -20 c-3 -8 -6 -5 -6 6 -1 11 2 17 5 13 3 -3 4 -12 1 -19z
m10 -40 c-3 -8 -6 -5 -6 6 -1 11 2 17 5 13 3 -3 4 -12 1 -19z m457 -98 c123
-22 135 -29 212 -137 37 -52 51 -63 82 -69 47 -8 70 -20 104 -51 14 -14 31
-22 36 -19 6 3 21 -7 34 -24 13 -16 35 -44 50 -62 32 -39 24 -45 -28 -23 -20
8 -39 13 -42 10 -15 -15 23 -54 84 -85 112 -56 112 -57 95 -250 -12 -129 -42
-207 -86 -226 -19 -7 -37 -18 -40 -24 -4 -6 2 -42 11 -80 18 -67 18 -69 -1
-91 -11 -12 -35 -28 -53 -36 -39 -16 -52 -42 -29 -55 10 -5 17 -14 17 -19 0
-6 -33 -49 -72 -96 l-73 -85 -7 59 c-3 32 -12 71 -18 88 l-11 30 -32 -60 c-53
-99 -75 -125 -105 -125 -30 0 -62 -20 -145 -92 -65 -57 -112 -78 -169 -77 -57
1 -81 9 -112 36 -25 22 -29 22 -101 12 -41 -6 -90 -8 -109 -5 -47 9 -92 53
-106 104 l-11 42 -40 -6 c-46 -8 -69 8 -90 59 -7 18 -32 55 -56 82 -76 87 -72
81 -52 93 18 12 39 69 39 109 0 12 -22 45 -48 75 -27 29 -54 68 -60 87 -7 18
-30 62 -52 97 -22 35 -40 70 -40 77 0 24 38 54 82 65 53 14 93 43 114 85 16
30 16 31 -12 54 -16 13 -32 23 -36 23 -22 0 -3 42 31 69 31 25 45 47 67 109
32 89 65 147 93 162 11 6 52 9 92 8 l71 -3 33 40 c19 21 31 43 29 47 -5 8 39
50 85 80 38 24 233 24 375 -2z m-1664 -302 c12 -40 27 -86 32 -101 7 -17 7
-32 2 -37 -18 -17 -281 -96 -290 -87 -3 3 -17 43 -31 89 -13 46 -27 91 -30
100 -6 20 9 27 117 60 36 10 85 25 110 33 25 7 50 14 56 14 6 1 21 -32 34 -71z
m-510 0 c43 -35 79 -68 79 -73 1 -6 -22 -38 -49 -72 l-50 -62 60 -7 c33 -4 62
-9 64 -13 5 -8 -10 -151 -17 -157 -11 -12 -44 8 -100 61 -33 30 -64 52 -70 48
-6 -4 -8 2 -5 15 4 12 3 20 -1 18 -4 -3 -35 8 -69 24 -33 17 -67 27 -74 25 -8
-3 -22 1 -32 8 -18 13 -13 21 74 130 52 65 98 117 102 117 5 0 44 -28 88 -62z
m973 -76 c16 -51 27 -98 24 -105 -3 -7 -47 -25 -99 -41 l-94 -29 -2 -66 c-4
-99 -7 -104 -53 -97 -44 7 -48 2 -69 -82 -6 -24 -17 -45 -25 -48 -8 -3 -36 1
-62 9 -26 9 -88 28 -136 43 l-89 27 7 34 c3 18 17 66 30 106 27 84 23 82 152
42 43 -14 78 -25 79 -25 1 0 5 16 8 36 6 30 10 34 28 28 24 -7 24 -6 -10 109
-23 79 -29 71 88 107 41 12 93 29 115 36 69 23 75 19 108 -84z m-1416 -109
c-20 -2 -52 -2 -70 0 -17 2 0 4 38 4 39 0 53 -2 32 -4z m-107 -7 c0 -2 -7 -7
-16 -10 -8 -3 -12 -2 -9 4 6 10 25 14 25 6z m214 -25 c53 -24 81 -51 97 -93 6
-15 21 -29 37 -33 36 -9 72 -51 72 -84 0 -26 4 -29 42 -35 39 -6 108 -47 117
-69 2 -5 8 -3 13 4 7 10 8 9 4 -6 -3 -11 -2 -33 3 -50 l9 -30 1 33 c1 31 21
48 21 17 0 -8 4 -15 9 -15 5 0 21 -33 36 -72 23 -60 29 -92 31 -182 3 -97 1
-117 -23 -185 -14 -42 -34 -87 -43 -101 -8 -14 -21 -36 -28 -50 -28 -55 -125
-146 -143 -134 -7 4 -57 8 -111 10 l-98 2 -22 -39 c-14 -26 -30 -40 -50 -44
-15 -4 -28 -11 -28 -15 0 -5 15 -2 33 6 17 8 40 17 50 21 9 3 17 10 17 17 0 7
4 6 9 -2 5 -9 31 -14 77 -14 51 -1 61 -3 39 -8 -16 -4 -25 -8 -20 -9 25 -3
-56 -42 -128 -61 -64 -17 -107 -22 -212 -21 -140 0 -163 5 -210 45 l-30 26 33
-16 c17 -8 32 -19 32 -24 0 -12 39 -19 46 -8 4 6 35 7 83 3 64 -6 84 -3 126
14 l50 20 -40 1 c-22 0 -50 3 -63 6 -21 6 -22 7 -5 19 10 6 43 19 74 29 60 18
106 56 95 78 -4 7 -13 24 -21 38 -8 14 -15 41 -15 61 0 22 -7 42 -17 50 -15
13 -16 11 -10 -16 l6 -30 -14 33 c-8 17 -21 32 -28 32 -7 0 -23 9 -35 20 -12
11 -42 23 -67 27 -25 3 -43 8 -41 11 6 6 163 -17 191 -28 17 -6 24 -2 37 21 9
15 13 30 10 32 -4 2 -2 3 4 1 6 -1 15 1 20 6 5 5 58 5 119 0 101 -7 111 -10
132 -35 l23 -26 1 28 c2 63 -4 89 -29 116 -14 15 -31 27 -37 27 -6 0 -20 6
-31 14 -19 14 -19 15 4 36 24 23 28 50 11 67 -17 17 -4 30 39 36 61 10 87 46
87 119 0 55 -3 62 -33 89 -25 23 -42 29 -76 29 l-43 0 -6 -52 c-5 -41 -13 -59
-34 -77 -16 -14 -27 -32 -25 -43 4 -22 -6 -23 -33 -4 -11 7 -44 17 -74 21 -63
9 -108 44 -113 90 -2 21 -13 37 -38 54 -57 40 -66 67 -25 77 14 3 25 11 25 17
0 6 3 7 6 4 4 -4 2 -13 -5 -20 -9 -12 -6 -18 14 -31 24 -16 25 -16 25 8 0 14
5 28 10 31 6 3 10 15 10 26 0 11 16 36 35 56 28 28 40 35 64 31 26 -4 29 -2
20 13 -16 32 -52 49 -100 49 -56 0 -103 -30 -81 -51 6 -7 12 -20 11 -28 0 -10
-4 -7 -9 7 -5 12 -16 22 -25 22 -8 0 -20 11 -25 25 -5 14 -15 25 -21 25 -7 0
-9 3 -6 6 4 4 13 1 22 -6 10 -9 15 -9 15 -1 0 6 17 19 38 29 20 9 39 20 42 23
6 7 33 17 40 14 3 -1 27 -12 54 -24z m-224 -11 c13 -9 13 -10 0 -9 -8 0 -24 4
-35 9 l-20 9 20 0 c11 0 27 -4 35 -9z m-203 -20 c4 -12 3 -13 -5 -1 -7 10 -20
12 -43 7 -25 -4 -30 -3 -19 4 21 14 63 8 67 -10z m530 14 c-3 -3 -12 -4 -19
-1 -8 3 -5 6 6 6 11 1 17 -2 13 -5z m-428 -16 c-2 -2 -26 -23 -52 -48 -50 -47
-64 -51 -22 -6 14 15 25 34 25 42 0 9 10 14 27 14 14 0 24 -1 22 -2z m511 -19
c0 -6 -4 -7 -10 -4 -5 3 -10 11 -10 16 0 6 5 7 10 4 6 -3 10 -11 10 -16z
m-700 7 c0 -2 -8 -10 -17 -17 -16 -13 -17 -12 -4 4 13 16 21 21 21 13z m253
-23 c-12 -2 -42 -22 -67 -44 -25 -23 -46 -37 -46 -33 0 20 86 84 110 83 22 -2
23 -2 3 -6z m477 -42 c0 -32 -6 -24 -14 19 -4 25 -3 31 4 20 5 -8 10 -26 10
-39z m-784 11 c-18 -16 -18 -16 -6 6 6 13 14 21 18 18 3 -4 -2 -14 -12 -24z
m394 -49 c0 -24 1 -46 1 -50 1 -5 -10 -14 -25 -21 -14 -7 -36 -26 -48 -43 -15
-20 -30 -29 -47 -28 -21 1 -22 2 -6 6 11 3 35 19 52 37 29 28 33 37 33 88 0
31 -4 60 -10 63 -25 16 -7 22 20 7 26 -15 30 -23 30 -59z m-428 15 c-7 -7 -12
-8 -12 -2 0 6 3 14 7 17 3 4 9 5 12 2 2 -3 -1 -11 -7 -17z m2148 -4 c0 -8 -6
-14 -14 -14 -9 0 -12 7 -9 20 6 22 23 18 23 -6z m-1938 -17 c53 -41 68 -68 68
-129 0 -28 5 -48 13 -51 7 -3 5 -6 -5 -6 -10 -1 -18 -5 -18 -10 0 -5 -3 -18
-6 -28 -3 -11 -2 -14 3 -7 28 36 132 38 157 3 7 -10 27 -22 44 -25 17 -4 48
-22 67 -41 36 -35 36 -35 58 -17 22 19 22 19 6 -1 -9 -11 -20 -30 -23 -41 -4
-12 -16 -32 -27 -45 l-21 -24 7 27 c6 22 1 33 -28 63 -37 38 -64 50 -29 13 29
-31 43 -74 36 -105 -6 -21 -4 -24 7 -18 18 11 15 7 -49 -49 -51 -45 -50 -56 2
-36 19 7 26 17 27 37 1 22 4 19 12 -16 9 -38 8 -45 -8 -57 -23 -17 -110 -18
-156 -2 -82 28 -163 140 -163 226 -1 39 -4 51 -14 47 -8 -3 -32 -5 -55 -5 -30
0 -38 -3 -27 -9 8 -6 18 -7 22 -5 5 3 7 0 6 -8 -2 -7 3 -12 10 -10 17 3 15
-33 -3 -48 -12 -10 -19 -7 -40 16 -19 20 -37 28 -74 32 -43 4 -51 1 -80 -27
-42 -41 -40 -58 14 -89 11 -6 15 -12 9 -12 -6 0 -22 8 -35 18 -13 10 -32 21
-41 25 -31 11 -19 56 25 100 25 25 35 28 98 30 l47 1 -26 20 c-15 12 -30 20
-34 19 -4 -2 -5 3 -2 11 3 7 -2 20 -10 29 -18 18 -22 120 -6 140 6 7 20 25 32
41 27 35 71 55 125 56 32 0 51 -8 85 -33z m285 -24 c-3 -10 -5 -4 -5 12 0 17
2 24 5 18 2 -7 2 -21 0 -30z m408 26 c11 -17 2 -18 -19 -3 -17 12 -17 14 -4
14 9 0 20 -5 23 -11z m22 -41 c-3 -8 -6 -5 -6 6 -1 11 2 17 5 13 3 -3 4 -12 1
-19z m22 -63 c0 -5 -4 -3 -9 5 -5 8 -9 22 -9 30 0 16 17 -16 18 -35z m-1002 9
c-3 -3 -12 -4 -19 -1 -8 3 -5 6 6 6 11 1 17 -2 13 -5z m-45 -12 c-13 -9 -20
-117 -8 -129 3 -4 6 2 6 13 0 13 8 19 24 20 24 2 24 1 -7 -25 -18 -14 -33 -29
-35 -32 -1 -3 -9 -15 -17 -25 -12 -15 -14 -15 -9 -3 3 10 1 20 -4 23 -5 3 -12
-4 -16 -17 -5 -17 -8 -19 -15 -8 -11 17 -6 30 31 94 15 26 28 59 28 72 0 17 6
25 18 25 12 0 14 -2 4 -8z m502 -34 c-29 -35 -46 -48 -63 -47 -9 0 -4 5 12 11
15 5 27 13 27 18 0 10 28 40 37 40 3 0 -2 -10 -13 -22z m1495 -138 c50 -66 91
-122 91 -125 0 -2 -39 -34 -87 -71 l-87 -67 -23 29 c-118 146 -165 216 -154
227 19 19 155 125 162 126 3 1 47 -53 98 -119z m-599 74 c25 -7 77 -22 115
-34 39 -11 75 -27 82 -36 7 -10 13 -11 18 -5 13 22 35 9 79 -46 l46 -58 -41
-35 -41 -36 25 -11 c27 -13 97 -71 97 -82 0 -3 -50 -5 -111 -3 l-111 3 6 31
c3 17 6 37 6 45 0 8 5 11 11 7 7 -4 7 2 -1 17 l-13 23 -14 -28 c-16 -31 -21
-31 -158 11 -123 38 -133 42 -114 56 14 11 14 14 -1 30 -18 19 -16 51 8 115 6
15 13 35 16 45 4 14 11 17 28 11 13 -4 43 -13 68 -20z m-1330 -48 c0 -2 -8
-10 -17 -17 -16 -13 -17 -12 -4 4 13 16 21 21 21 13z m3764 -78 c-13 -40 -28
-82 -34 -93 -5 -11 -11 -29 -13 -40 -5 -24 -12 94 -8 145 3 44 16 60 51 60
l28 0 -24 -72z m-3930 -2 c-3 -15 -8 -25 -11 -23 -2 3 -1 17 3 31 3 15 8 25
11 23 2 -3 1 -17 -3 -31z m28 -25 c-4 -46 -2 -51 34 -88 22 -22 48 -45 59 -52
19 -12 19 -12 -2 -8 -20 4 -21 2 -12 -14 11 -22 28 -23 101 -8 50 11 88 29 59
29 -8 0 -6 10 8 29 34 47 78 91 93 91 9 0 9 -3 2 -8 -18 -11 -24 -150 -8 -166
7 -8 19 -32 26 -55 10 -31 18 -41 34 -41 11 0 31 -9 43 -20 14 -11 34 -18 50
-16 14 2 19 1 11 -1 -8 -3 -21 -14 -28 -24 -7 -11 -19 -19 -27 -19 -7 0 -15
-6 -18 -12 -2 -7 -3 -5 -1 5 1 9 -4 24 -13 32 -16 17 -38 20 -28 5 14 -23 -60
-89 -117 -103 -41 -11 -37 -50 7 -94 34 -34 37 -35 98 -32 l62 4 0 -29 c1 -17
10 -36 24 -47 25 -21 21 -25 -10 -9 -10 6 -19 17 -19 25 0 18 -23 19 -51 4
-16 -8 -30 -7 -60 5 -48 20 -83 57 -100 110 -14 41 -36 57 -50 35 -5 -8 -9
-48 -10 -89 -1 -41 -4 -60 -6 -42 -3 23 -24 57 -63 104 -33 39 -57 75 -54 79
3 5 2 9 -3 9 -10 0 -48 82 -59 125 -4 17 -12 33 -18 37 -7 5 -7 8 2 8 8 0 16
-9 19 -19 3 -11 11 -17 18 -15 7 3 16 0 21 -7 5 -8 3 -10 -7 -4 -10 6 -9 2 2
-11 9 -10 20 -36 23 -58 4 -21 9 -36 12 -34 2 3 0 27 -5 54 -10 51 -5 100 10
110 5 3 -3 23 -16 44 -14 23 -25 55 -25 74 0 19 -4 38 -10 41 -11 7 -14 74 -4
99 10 26 11 19 6 -33z m949 29 c10 -6 19 -16 19 -23 0 -8 -3 -9 -8 -1 -4 6
-16 16 -27 22 -25 14 -11 16 16 2z m-126 -17 c-11 -3 -24 -11 -28 -19 -4 -8
-13 -14 -19 -14 -6 0 -3 9 7 20 10 11 28 19 39 19 20 -1 20 -2 1 -6z m117 -32
c25 -22 30 -32 21 -42 -6 -8 -13 -23 -16 -34 -4 -14 -5 -13 -4 6 2 30 -48 79
-79 79 -16 0 -17 2 -4 10 25 16 48 11 82 -19z m1397 -11 c11 -24 11 -24 -3 -6
-9 11 -16 24 -16 30 0 12 5 7 19 -24z m-2382 -2 c-3 -8 -6 -5 -6 6 -1 11 2 17
5 13 3 -3 4 -12 1 -19z m803 -48 c-5 -25 -15 -60 -23 -79 l-15 -34 -6 30 c-7
31 17 111 38 125 15 10 15 8 6 -42z m-522 20 c-7 -10 -14 -18 -15 -16 -6 6 9
36 18 36 5 0 4 -9 -3 -20z m-301 -72 c-2 -13 -4 -5 -4 17 -1 22 1 32 4 23 2
-10 2 -28 0 -40z m263 27 c-7 -8 -24 -14 -39 -14 -22 2 -23 2 -4 6 12 2 27 11
34 19 6 8 14 12 17 9 3 -2 -1 -11 -8 -20z m750 -22 c-1 -14 -27 -43 -38 -43
-13 0 -52 -39 -52 -52 0 -20 29 -5 38 20 9 23 11 24 11 6 1 -12 -5 -26 -11
-31 -20 -16 -86 -25 -93 -14 -11 18 39 85 80 109 23 13 65 16 65 5z m529 -13
c10 -5 21 -16 25 -25 7 -19 2 -19 -17 -1 -7 8 -38 18 -68 24 l-54 10 48 1 c27
0 56 -3 66 -9z m-1342 -26 c-3 -3 -12 -4 -19 -1 -8 3 -5 6 6 6 11 1 17 -2 13
-5z m-203 -39 c5 -22 4 -26 -4 -15 -5 8 -10 24 -10 34 0 26 6 18 14 -19z
m1026 -21 c-16 -49 -21 -38 -8 16 6 24 13 39 16 32 2 -6 -2 -28 -8 -48z m-175
7 c-8 -7 -56 10 -50 18 3 5 16 4 29 -2 14 -7 23 -14 21 -16z m1560 -32 c38
-58 151 -170 221 -217 33 -22 92 -55 130 -72 38 -17 76 -35 84 -39 9 -5 35
-12 58 -16 23 -4 45 -11 48 -16 3 -6 14 -7 25 -4 10 4 27 2 36 -4 15 -9 13
-10 -14 -11 -18 0 -55 5 -83 11 -28 6 -53 9 -55 7 -2 -1 3 -55 12 -118 8 -63
15 -198 15 -300 0 -162 -2 -193 -21 -251 -12 -37 -28 -72 -36 -79 -12 -10 -62
-12 -223 -6 -203 7 -207 7 -233 32 -35 33 -73 105 -95 179 -23 73 -25 287 -5
380 15 68 103 274 156 364 l36 60 -46 56 c-25 31 -45 62 -45 70 0 24 8 18 35
-26z m-1638 17 c5 -8 19 -19 33 -25 17 -6 19 -10 8 -10 -9 -1 -29 10 -44 24
-15 14 -22 25 -16 25 6 0 15 -6 19 -14z m656 -40 c15 -16 29 -114 53 -391 18
-209 15 -534 -6 -617 l-11 -46 -72 -6 c-113 -8 -501 -25 -505 -21 -6 6 -30
171 -37 255 -7 87 6 222 28 288 10 30 19 37 62 51 192 63 377 249 440 444 19
60 25 65 48 43z m2290 -81 c-3 -9 -8 -14 -10 -11 -3 3 -2 9 2 15 9 16 15 13 8
-4z m-3018 -25 c3 -11 9 -20 13 -20 4 0 6 -39 5 -87 -1 -66 -6 -91 -20 -108
-25 -30 -47 -36 -71 -20 -10 8 -23 11 -27 7 -3 -4 -6 -2 -4 3 1 6 -3 23 -9 38
-7 16 -12 34 -12 40 -1 19 -30 -25 -30 -45 0 -10 10 -23 23 -28 l22 -9 -22 0
c-13 -1 -24 7 -28 19 -3 11 -11 20 -17 20 -6 0 -8 12 -3 33 4 17 9 62 12 99
l5 67 51 4 c29 2 64 4 79 5 19 1 28 -4 33 -18z m-228 -137 c-2 -21 -4 -4 -4
37 0 41 2 58 4 38 2 -21 2 -55 0 -75z m306 7 c3 -39 2 -55 -3 -40 -8 25 -13
117 -6 109 2 -2 6 -33 9 -69z m312 -69 c3 -5 1 -12 -5 -16 -5 -3 -10 1 -10 9
0 18 6 21 15 7z m-33 -43 c-7 -7 -12 -8 -12 -2 0 14 12 26 19 19 2 -3 -1 -11
-7 -17z m-656 -25 c-7 -7 -26 7 -26 19 0 6 6 6 15 -2 9 -7 13 -15 11 -17z
m227 -30 c-13 -2 -35 -2 -50 0 -16 2 -5 4 22 4 28 0 40 -2 28 -4z m90 -10 c-7
-2 -19 -2 -25 0 -7 3 -2 5 12 5 14 0 19 -2 13 -5z m-116 -69 c-3 -3 -12 -4
-19 -1 -8 3 -5 6 6 6 11 1 17 -2 13 -5z"/>
<path d="M3553 3613 c20 -2 54 -2 75 0 20 2 3 4 -38 4 -41 0 -58 -2 -37 -4z"/>
<path d="M3413 3565 c0 -27 2 -38 4 -22 2 15 2 37 0 50 -2 12 -4 0 -4 -28z"/>
<path d="M3623 3543 c9 -2 25 -2 35 0 9 3 1 5 -18 5 -19 0 -27 -2 -17 -5z"/>
<path d="M3580 3496 c0 -24 -5 -36 -17 -39 -14 -4 -12 -5 5 -6 19 -1 22 4 22
39 0 22 -2 40 -5 40 -3 0 -5 -15 -5 -34z"/>
<path d="M3227 3523 c28 -4 32 -8 36 -41 l4 -37 1 43 2 42 -37 -2 c-37 -1 -37
-1 -6 -5z"/>
<path d="M3270 3360 c0 -5 5 -10 10 -10 6 0 10 5 10 10 0 6 -4 10 -10 10 -5 0
-10 -4 -10 -10z"/>
<path d="M3058 3343 c17 -2 47 -2 65 0 17 2 3 4 -33 4 -36 0 -50 -2 -32 -4z"/>
<path d="M3978 3483 c7 -3 16 -2 19 1 4 3 -2 6 -13 5 -11 0 -14 -3 -6 -6z"/>
<path d="M4088 3443 c7 -3 16 -2 19 1 4 3 -2 6 -13 5 -11 0 -14 -3 -6 -6z"/>
<path d="M3931 3394 c0 -11 3 -14 6 -6 3 7 2 16 -1 19 -3 4 -6 -2 -5 -13z"/>
<path d="M4195 3400 c3 -5 8 -10 11 -10 2 0 4 5 4 10 0 6 -5 10 -11 10 -5 0
-7 -4 -4 -10z"/>
<path d="M4161 3294 c0 -11 3 -14 6 -6 3 7 2 16 -1 19 -3 4 -6 -2 -5 -13z"/>
<path d="M4128 3253 c7 -3 16 -2 19 1 4 3 -2 6 -13 5 -11 0 -14 -3 -6 -6z"/>
<path d="M3078 2983 c7 -3 16 -2 19 1 4 3 -2 6 -13 5 -11 0 -14 -3 -6 -6z"/>
<path d="M3133 2983 c15 -2 39 -2 55 0 15 2 2 4 -28 4 -30 0 -43 -2 -27 -4z"/>
<path d="M3771 3294 c0 -11 3 -14 6 -6 3 7 2 16 -1 19 -3 4 -6 -2 -5 -13z"/>
<path d="M3728 3293 c6 -2 18 -2 25 0 6 3 1 5 -13 5 -14 0 -19 -2 -12 -5z"/>
<path d="M3678 3283 c7 -3 16 -2 19 1 4 3 -2 6 -13 5 -11 0 -14 -3 -6 -6z"/>
<path d="M3610 3259 c0 -5 5 -7 10 -4 6 3 10 8 10 11 0 2 -4 4 -10 4 -5 0 -10
-5 -10 -11z"/>
<path d="M3622 3215 c0 -16 2 -22 5 -12 2 9 2 23 0 30 -3 6 -5 -1 -5 -18z"/>
<path d="M3802 3180 c0 -14 2 -19 5 -12 2 6 2 18 0 25 -3 6 -5 1 -5 -13z"/>
<path d="M3631 3154 c0 -11 3 -14 6 -6 3 7 2 16 -1 19 -3 4 -6 -2 -5 -13z"/>
<path d="M4246 3143 c-6 -14 -5 -15 5 -6 7 7 10 15 7 18 -3 3 -9 -2 -12 -12z"/>
<path d="M3812 3130 c0 -14 2 -19 5 -12 2 6 2 18 0 25 -3 6 -5 1 -5 -13z"/>
<path d="M4270 3136 c0 -2 7 -7 16 -10 8 -3 12 -2 9 4 -6 10 -25 14 -25 6z"/>
<path d="M3651 3094 c0 -11 3 -14 6 -6 3 7 2 16 -1 19 -3 4 -6 -2 -5 -13z"/>
<path d="M4317 3099 c7 -7 15 -10 18 -7 3 3 -2 9 -12 12 -14 6 -15 5 -6 -5z"/>
<path d="M3660 3045 c0 -14 4 -25 9 -25 4 0 6 11 3 25 -2 14 -6 25 -8 25 -2 0
-4 -11 -4 -25z"/>
<path d="M4176 3053 c-6 -14 -5 -15 5 -6 7 7 10 15 7 18 -3 3 -9 -2 -12 -12z"/>
<path d="M4360 3055 c0 -8 2 -15 4 -15 2 0 6 7 10 15 3 8 1 15 -4 15 -6 0 -10
-7 -10 -15z"/>
<path d="M4135 2999 c-4 -6 -5 -12 -2 -15 2 -3 7 2 10 11 7 17 1 20 -8 4z"/>
<path d="M4030 2946 c0 -2 8 -10 18 -17 15 -13 16 -12 3 4 -13 16 -21 21 -21
13z"/>
<path d="M4076 2897 c3 -10 9 -15 12 -12 3 3 0 11 -7 18 -10 9 -11 8 -5 -6z"/>
<path d="M3462 2838 c-1 -27 0 -48 2 -48 2 0 13 -3 23 -6 17 -6 17 -6 1 7 -9
8 -19 32 -21 54 -4 39 -4 39 -5 -7z"/>
<path d="M3681 2866 c2 -2 15 -9 29 -15 24 -11 24 -11 6 3 -16 13 -49 24 -35
12z"/>
<path d="M3810 2806 c0 -2 8 -10 18 -17 15 -13 16 -12 3 4 -13 16 -21 21 -21
13z"/>
<path d="M3850 2766 c0 -2 8 -10 18 -17 15 -13 16 -12 3 4 -13 16 -21 21 -21
13z"/>
<path d="M3620 2710 c8 -5 20 -10 25 -10 6 0 3 5 -5 10 -8 5 -19 10 -25 10 -5
0 -3 -5 5 -10z"/>
<path d="M3388 3283 c7 -3 16 -2 19 1 4 3 -2 6 -13 5 -11 0 -14 -3 -6 -6z"/>
<path d="M3330 3250 c-9 -6 -10 -10 -3 -10 6 0 15 5 18 10 8 12 4 12 -15 0z"/>
<path d="M3405 3100 c-3 -6 1 -7 9 -4 18 7 21 14 7 14 -6 0 -13 -4 -16 -10z"/>
<path d="M3360 3070 c-9 -6 -10 -10 -3 -10 6 0 15 5 18 10 8 12 4 12 -15 0z"/>
<path d="M3266 3026 c3 -9 9 -16 13 -16 11 1 56 29 46 29 -5 1 -17 -3 -25 -9
-9 -5 -19 -5 -27 2 -10 8 -12 7 -7 -6z"/>
<path d="M2700 2900 c-9 -6 -10 -10 -3 -10 6 0 15 5 18 10 8 12 4 12 -15 0z"/>
<path d="M2563 2865 c0 -22 2 -30 4 -17 2 12 2 30 0 40 -3 9 -5 -1 -4 -23z"/>
<path d="M2760 2896 c0 -2 16 -6 35 -8 19 -2 35 0 35 4 0 4 -16 8 -35 8 -19 0
-35 -2 -35 -4z"/>
<path d="M2813 2795 c0 -22 2 -30 4 -17 2 12 2 30 0 40 -3 9 -5 -1 -4 -23z"/>
<path d="M2550 2768 c0 -12 7 -18 23 -17 15 0 17 2 7 6 -8 3 -18 11 -22 17 -5
7 -8 4 -8 -6z"/>
<path d="M2648 2743 c12 -2 30 -2 40 0 9 3 -1 5 -23 4 -22 0 -30 -2 -17 -4z"/>
<path d="M5172 2608 c-26 -26 -3 -88 31 -88 23 0 54 29 52 49 -3 43 -54 68
-83 39z"/>
<path d="M5010 2559 c-52 -21 -92 -79 -55 -79 33 0 95 50 95 77 0 15 -6 15
-40 2z"/>
<path d="M5451 2554 c0 -11 3 -14 6 -6 3 7 2 16 -1 19 -3 4 -6 -2 -5 -13z"/>
<path d="M4449 2541 c-21 -17 -22 -21 -10 -44 15 -29 37 -37 67 -26 30 10 37
38 19 65 -19 29 -45 31 -76 5z"/>
<path d="M4698 2530 c-31 -28 -32 -29 -10 -30 26 0 68 25 76 46 10 25 -32 16
-66 -16z"/>
<path d="M4290 2475 c0 -26 43 -84 52 -69 8 13 -21 82 -38 88 -10 4 -14 -2
-14 -19z"/>
<path d="M4820 2483 c0 -19 41 -83 53 -83 15 0 6 48 -14 74 -23 30 -39 34 -39
9z"/>
<path d="M4380 2447 c0 -8 11 -24 25 -37 27 -25 32 -16 13 25 -12 26 -38 35
-38 12z"/>
<path d="M5182 2440 c-18 -29 -16 -96 4 -104 36 -14 59 68 30 107 -17 21 -18
21 -34 -3z"/>
<path d="M4995 2315 c-29 -28 -31 -46 -9 -80 30 -46 95 -22 96 35 1 23 -6 38
-23 51 -31 24 -35 24 -64 -6z"/>
<path d="M4675 2213 c7 -31 41 -71 51 -60 10 9 -4 53 -22 71 -24 25 -37 20
-29 -11z"/>
<path d="M4292 2194 c-27 -19 -28 -45 -2 -69 28 -25 74 -10 78 25 4 47 -37 71
-76 44z"/>
<path d="M5233 2169 c-31 -34 -35 -50 -15 -57 14 -4 82 59 82 77 0 22 -41 10
-67 -20z"/>
<path d="M4890 2180 c0 -11 51 -60 62 -60 15 0 8 37 -10 53 -20 18 -52 23 -52
7z"/>
<path d="M4260 2092 c0 -5 7 -13 16 -16 10 -4 14 -1 12 6 -5 15 -28 23 -28 10z"/>
<path d="M4684 2075 c-24 -24 -25 -28 -11 -48 16 -25 61 -34 83 -16 22 18 17
55 -11 73 -31 21 -31 21 -61 -9z"/>
<path d="M4230 2046 c0 -8 5 -18 10 -21 6 -3 10 3 10 14 0 12 -4 21 -10 21 -5
0 -10 -6 -10 -14z"/>
<path d="M5360 2033 c-21 -8 -30 -24 -30 -54 0 -58 73 -79 109 -33 25 32 25
33 3 61 -18 23 -57 36 -82 26z"/>
<path d="M4540 2021 c0 -15 56 -51 79 -51 31 0 26 15 -13 39 -35 22 -66 27
-66 12z"/>
<path d="M4786 1959 c-45 -54 -28 -68 25 -21 19 17 29 34 25 40 -11 19 -22 14
-50 -19z"/>
<path d="M5070 1872 c0 -11 28 -34 62 -51 22 -12 30 -12 43 -1 13 11 11 16
-17 36 -31 23 -88 33 -88 16z"/>
<path d="M4637 1854 c-17 -17 43 -83 76 -84 26 0 21 26 -12 60 -27 29 -50 37
-64 24z"/>
<path d="M4260 1810 c-27 -51 22 -102 75 -78 29 13 43 53 28 77 -6 9 -27 17
-51 19 -33 3 -43 -1 -52 -18z"/>
<path d="M5240 1820 c0 -12 40 -33 48 -25 4 4 -2 13 -12 21 -23 16 -36 18 -36
4z"/>
<path d="M4951 1774 c-32 -26 -41 -54 -18 -54 15 1 67 46 67 59 0 22 -20 20
-49 -5z"/>
<path d="M4502 1733 c-17 -17 -22 -28 -14 -31 15 -5 74 29 80 46 7 23 -38 13
-66 -15z"/>
<path d="M5151 1734 c-35 -29 -39 -44 -13 -44 20 0 62 39 62 58 0 19 -16 14
-49 -14z"/>
<path d="M4345 1710 c-7 -12 2 -12 30 0 19 8 19 9 -2 9 -12 1 -25 -3 -28 -9z"/>
<path d="M4680 1652 c0 -22 16 -43 50 -66 33 -22 40 -20 40 9 0 28 -46 75 -72
75 -11 0 -18 -7 -18 -18z"/>
<path d="M4975 1610 c-28 -31 -10 -74 32 -78 25 -3 35 2 49 23 16 25 16 27 -6
50 -28 30 -51 32 -75 5z"/>
<path d="M3278 2613 c7 -3 16 -2 19 1 4 3 -2 6 -13 5 -11 0 -14 -3 -6 -6z"/>
<path d="M3301 2584 c0 -11 3 -14 6 -6 3 7 2 16 -1 19 -3 4 -6 -2 -5 -13z"/>
<path d="M3198 2583 c7 -3 16 -2 19 1 4 3 -2 6 -13 5 -11 0 -14 -3 -6 -6z"/>
<path d="M3148 2573 c7 -3 16 -2 19 1 4 3 -2 6 -13 5 -11 0 -14 -3 -6 -6z"/>
<path d="M3060 2530 c0 -11 2 -20 4 -20 2 0 6 9 9 20 3 11 1 20 -4 20 -5 0 -9
-9 -9 -20z"/>
<path d="M3331 2494 c0 -11 3 -14 6 -6 3 7 2 16 -1 19 -3 4 -6 -2 -5 -13z"/>
<path d="M3071 2484 c0 -11 3 -14 6 -6 3 7 2 16 -1 19 -3 4 -6 -2 -5 -13z"/>
<path d="M3268 2433 c7 -3 16 -2 19 1 4 3 -2 6 -13 5 -11 0 -14 -3 -6 -6z"/>
<path d="M3138 2393 c7 -3 16 -2 19 1 4 3 -2 6 -13 5 -11 0 -14 -3 -6 -6z"/>
<path d="M2857 2509 c7 -7 15 -10 18 -7 3 3 -2 9 -12 12 -14 6 -15 5 -6 -5z"/>
<path d="M2629 2463 c-13 -16 -12 -17 4 -4 9 7 17 15 17 17 0 8 -8 3 -21 -13z"/>
<path d="M2595 2419 c-4 -6 -5 -12 -2 -15 2 -3 7 2 10 11 7 17 1 20 -8 4z"/>
<path d="M3668 2543 c7 -3 16 -2 19 1 4 3 -2 6 -13 5 -11 0 -14 -3 -6 -6z"/>
<path d="M3761 2524 c0 -11 3 -14 6 -6 3 7 2 16 -1 19 -3 4 -6 -2 -5 -13z"/>
<path d="M3538 2503 c7 -3 16 -2 19 1 4 3 -2 6 -13 5 -11 0 -14 -3 -6 -6z"/>
<path d="M3772 2480 c0 -14 2 -19 5 -12 2 6 2 18 0 25 -3 6 -5 1 -5 -13z"/>
<path d="M3511 2464 c0 -11 3 -14 6 -6 3 7 2 16 -1 19 -3 4 -6 -2 -5 -13z"/>
<path d="M3542 2380 c0 -14 2 -19 5 -12 2 6 2 18 0 25 -3 6 -5 1 -5 -13z"/>
<path d="M3738 2393 c7 -3 16 -2 19 1 4 3 -2 6 -13 5 -11 0 -14 -3 -6 -6z"/>
<path d="M3608 2353 c7 -3 16 -2 19 1 4 3 -2 6 -13 5 -11 0 -14 -3 -6 -6z"/>
<path d="M3558 2343 c7 -3 16 -2 19 1 4 3 -2 6 -13 5 -11 0 -14 -3 -6 -6z"/>
<path d="M3271 2284 c0 -11 3 -14 6 -6 3 7 2 16 -1 19 -3 4 -6 -2 -5 -13z"/>
<path d="M3368 2263 c7 -3 16 -2 19 1 4 3 -2 6 -13 5 -11 0 -14 -3 -6 -6z"/>
<path d="M3262 2240 c0 -14 2 -19 5 -12 2 6 2 18 0 25 -3 6 -5 1 -5 -13z"/>
<path d="M3452 2215 c0 -16 2 -22 5 -12 2 9 2 23 0 30 -3 6 -5 -1 -5 -18z"/>
<path d="M3231 2154 c0 -11 3 -14 6 -6 3 7 2 16 -1 19 -3 4 -6 -2 -5 -13z"/>
<path d="M3492 2140 c0 -14 2 -19 5 -12 2 6 2 18 0 25 -3 6 -5 1 -5 -13z"/>
<path d="M3248 2123 c7 -3 16 -2 19 1 4 3 -2 6 -13 5 -11 0 -14 -3 -6 -6z"/>
<path d="M3298 2113 c7 -3 16 -2 19 1 4 3 -2 6 -13 5 -11 0 -14 -3 -6 -6z"/>
<path d="M3388 2083 c7 -3 16 -2 19 1 4 3 -2 6 -13 5 -11 0 -14 -3 -6 -6z"/>
<path d="M3428 2073 c7 -3 16 -2 19 1 4 3 -2 6 -13 5 -11 0 -14 -3 -6 -6z"/>
<path d="M2468 2173 c-6 -16 -12 -35 -13 -43 -1 -8 -6 -24 -10 -34 -7 -17 -5
-18 19 -12 38 9 74 45 85 84 l10 32 -40 0 c-34 0 -41 -4 -51 -27z"/>
<path d="M2596 2162 c-10 -57 -80 -122 -131 -122 -31 0 -34 -27 -5 -58 29 -30
100 -32 100 -2 0 11 4 20 8 20 4 0 14 15 20 34 7 19 19 36 27 39 7 3 21 22 30
41 18 39 13 56 -25 76 -15 8 -19 3 -24 -28z"/>
<path d="M2616 1994 c-4 -9 -4 -19 -1 -22 2 -3 7 3 11 12 4 9 4 19 1 22 -2 3
-7 -3 -11 -12z"/>
<path d="M2871 1879 c-2 -33 -70 -89 -109 -89 -21 0 -51 -52 -33 -58 31 -10
78 -52 93 -82 10 -19 18 -55 19 -80 1 -41 1 -43 10 -19 7 19 20 29 42 33 26 5
29 9 17 17 -11 8 -6 9 22 7 20 -2 35 -1 32 3 -2 4 1 9 7 11 17 6 1 108 -17
108 -15 0 -29 42 -21 64 3 8 -1 22 -9 33 -9 10 -12 12 -8 4 5 -9 3 -12 -5 -7
-6 4 -18 22 -25 39 -8 18 -15 25 -15 16z"/>
<path d="M2581 1508 c22 -40 52 -57 102 -58 26 0 47 5 47 11 0 5 5 7 10 4 14
-9 12 18 -2 37 -9 11 -38 18 -91 22 l-78 6 12 -22z"/>
<path d="M2831 1503 c0 -12 -7 -26 -15 -30 -7 -5 -16 -35 -19 -73 l-6 -65 14
40 c8 22 15 41 15 43 0 1 6 2 14 2 18 0 32 40 18 49 -5 3 -12 17 -15 31 -4 22
-4 23 -6 3z"/>
<path d="M2516 1492 c-5 -15 -1 -33 13 -56 12 -18 21 -47 21 -64 0 -35 16 -42
107 -42 69 0 93 15 93 56 0 23 -3 24 -35 18 -72 -13 -143 23 -181 91 -11 19
-11 19 -18 -3z"/>
<path d="M2757 1313 c-4 -3 -7 -11 -7 -17 0 -6 5 -5 12 2 6 6 9 14 7 17 -3 3
-9 2 -12 -2z"/>
<path d="M1943 2173 c-25 -22 -53 -79 -53 -107 0 -16 7 -21 32 -23 17 -1 36
-7 42 -13 6 -6 -1 -7 -22 -1 -36 11 -51 -1 -31 -25 7 -8 33 -27 57 -41 39 -23
46 -25 56 -11 6 8 17 13 24 10 20 -6 72 48 72 74 0 13 4 25 9 29 11 6 -18 77
-43 107 -22 25 -115 25 -143 1z m105 -53 c0 -9 -3 -7 -8 5 -5 11 -8 29 -8 40
0 16 2 15 8 -5 4 -14 8 -32 8 -40z m56 -59 c-2 -3 -12 3 -22 13 -16 17 -16 18
5 5 12 -7 20 -15 17 -18z m-94 -66 c7 -9 11 -17 8 -20 -2 -2 -12 4 -21 15 -9
11 -13 20 -8 20 5 0 14 -7 21 -15z"/>
<path d="M2166 1929 c-48 -30 -48 -31 -44 -74 3 -23 13 -53 22 -66 16 -23 16
-23 16 17 0 50 42 112 91 137 l34 17 -35 0 c-22 0 -53 -12 -84 -31z"/>
<path d="M2255 1892 c-59 -49 -72 -117 -33 -168 12 -16 23 -30 24 -32 4 -7 59
32 87 61 34 35 34 59 2 101 -14 18 -25 38 -25 44 0 18 -32 14 -55 -6z"/>
<path d="M3690 2001 c0 -6 4 -13 10 -16 6 -3 7 1 4 9 -7 18 -14 21 -14 7z"/>
<path d="M3655 1990 c-3 -6 1 -7 9 -4 18 7 21 14 7 14 -6 0 -13 -4 -16 -10z"/>
<path d="M3730 1950 c6 -11 13 -20 16 -20 2 0 0 9 -6 20 -6 11 -13 20 -16 20
-2 0 0 -9 6 -20z"/>
<path d="M3585 1939 c-4 -6 -5 -12 -2 -15 2 -3 7 2 10 11 7 17 1 20 -8 4z"/>
<path d="M3620 1820 c6 -11 13 -20 16 -20 2 0 0 9 -6 20 -6 11 -13 20 -16 20
-2 0 0 -9 6 -20z"/>
<path d="M3111 1984 c0 -11 3 -14 6 -6 3 7 2 16 -1 19 -3 4 -6 -2 -5 -13z"/>
<path d="M3148 1983 c7 -3 16 -2 19 1 4 3 -2 6 -13 5 -11 0 -14 -3 -6 -6z"/>
<path d="M3238 1953 c7 -3 16 -2 19 1 4 3 -2 6 -13 5 -11 0 -14 -3 -6 -6z"/>
<path d="M3278 1943 c7 -3 16 -2 19 1 4 3 -2 6 -13 5 -11 0 -14 -3 -6 -6z"/>
<path d="M3158 1803 c7 -3 16 -2 19 1 4 3 -2 6 -13 5 -11 0 -14 -3 -6 -6z"/>
<path d="M1987 1744 c-17 -23 -16 -44 2 -44 8 0 24 60 19 66 -2 1 -11 -9 -21
-22z"/>
<path d="M1990 1625 c-21 -25 -88 -38 -134 -26 -50 13 -59 3 -52 -61 7 -70 30
-98 77 -98 28 0 39 4 39 15 0 21 74 95 103 103 25 7 25 8 10 45 -17 41 -24 45
-43 22z"/>
<path d="M2030 1513 c-24 -10 -64 -52 -57 -60 10 -9 58 20 76 46 13 21 9 24
-19 14z"/>
<path d="M1770 1443 c0 -5 7 -17 15 -27 15 -20 20 -10 9 18 -6 16 -24 22 -24
9z"/>
<path d="M1820 1388 c0 -8 12 -15 30 -16 17 -1 30 2 30 8 0 5 -6 10 -14 10 -8
0 -21 3 -30 6 -10 4 -16 1 -16 -8z"/>
<path d="M2230 1450 c0 -11 4 -20 10 -20 5 0 14 9 20 20 9 17 8 20 -10 20 -13
0 -20 -7 -20 -20z"/>
<path d="M2317 1447 c-51 -41 -57 -135 -11 -178 19 -18 26 -20 39 -9 11 9 15
33 15 99 0 106 -6 118 -43 88z"/>
</g>
</svg>
